<svg xmlns="http://www.w3.org/2000/svg" width="159" height="87.12" viewBox="0 0 159 87.12">
  <g id="cfl365_logo-dark" data-name="cfl365 logo-dark" transform="translate(-45.08 -139.489)">
    <circle id="Ellipse_2" data-name="Ellipse 2" cx="6.424" cy="6.424" r="6.424" transform="translate(45.08 176.78)" fill="#f9c30c"/>
    <path id="Path_76" data-name="Path 76" d="M96.694,139.489A43.537,43.537,0,0,0,58.339,162.02a6.159,6.159,0,0,0-.544,1.021l-.095.177h0a6.172,6.172,0,0,0,10.834,5.719h0c.039-.071.075-.142.11-.217a6.143,6.143,0,0,0,.477-.883,31.269,31.269,0,0,1,55.053.705h-.032s1.734,4.193-1.281,7.043a6.639,6.639,0,0,1-10-1.478c-.142-.264-.3-.528-.449-.788l-.024-.043h0a18.669,18.669,0,1,0,.43,18.724,6.712,6.712,0,0,1,6.846-2.475c5.494.871,5.163,6.432,4.379,8.15l.138-.051a31.273,31.273,0,0,1-55.361-.039v.106a6.16,6.16,0,0,0-11,5.317h-.028l.083.158a6.171,6.171,0,0,0,.887,1.612,43.557,43.557,0,1,0,37.949-65.288Z" transform="translate(-7.402 0)" fill="#fff"/>
    <path id="Path_77" data-name="Path 77" d="M304.872,159.414v-3.472a3.275,3.275,0,0,0-.394-1.935,2.934,2.934,0,0,0-3.177-.012,3.21,3.21,0,0,0-.394,1.947v18.129a3.218,3.218,0,0,0,.394,1.947,2.039,2.039,0,0,0,1.576.461,2.077,2.077,0,0,0,1.6-.473,3.245,3.245,0,0,0,.394-1.935v-4.7h7.319v3.567a24.805,24.805,0,0,1-.359,5.013,6.409,6.409,0,0,1-1.218,2.605,4.757,4.757,0,0,1-2.329,1.576,19.976,19.976,0,0,1-5.2.449,25.841,25.841,0,0,1-5.975-.449,5.573,5.573,0,0,1-2.617-1.576,6.168,6.168,0,0,1-1.387-2.629,21.377,21.377,0,0,1-.418-4.989V157.053a22.375,22.375,0,0,1,.394-4.982,5.982,5.982,0,0,1,1.4-2.617,5.679,5.679,0,0,1,2.814-1.62,25.422,25.422,0,0,1,5.778-.465,19.776,19.776,0,0,1,5.013.453,4.729,4.729,0,0,1,2.467,1.576,6.368,6.368,0,0,1,1.253,2.648,24.352,24.352,0,0,1,.37,4.993v2.365Z" transform="translate(-150.025 -4.775)" fill="#fff"/>
    <path id="Path_78" data-name="Path 78" d="M407.74,182.824V148.43h8.016v28.234h7.571v6.16Z" transform="translate(-219.732 -5.418)" fill="#fff"/>
    <path id="Path_79" data-name="Path 79" d="M356,182.824V148.43h15.079v6.16H364.02v8.548h6.388v6.16H364.02v13.526Z" transform="translate(-188.384 -5.418)" fill="#fff"/>
    <path id="Path_80" data-name="Path 80" d="M302.446,257.927l7.07-6.2a1.62,1.62,0,0,0-1.076-2.838l-15.087.071a1.624,1.624,0,1,0,0,3.244l10.743-.051-7.977,6.991a1.62,1.62,0,0,0-.15,2.286,1.576,1.576,0,0,0,.721.465l.162.26.323-.173h0a1.632,1.632,0,0,0,1.068-.394l.193-.169a6.879,6.879,0,0,1,2.282-.394,7.112,7.112,0,1,1-6.057,10.791,1.574,1.574,0,0,0-.307-.532.189.189,0,0,1,0-.039l-.437-.887-.359.394a1.5,1.5,0,0,0-.426-.063,1.647,1.647,0,0,0-1.647,1.647,1.808,1.808,0,0,0,.032.327l-.067.055.284.493a10.349,10.349,0,1,0,10.7-15.3Z" transform="translate(-149.273 -66.285)" fill="#f9c30c"/>
    <path id="Path_81" data-name="Path 81" d="M373.864,257.776a10.184,10.184,0,0,0-4.4,1.009,1.635,1.635,0,0,0,.315-.954v-5.7H381.51a1.62,1.62,0,0,0,0-3.24H368.157a1.62,1.62,0,0,0-1.62,1.62v7.307a1.62,1.62,0,0,0,1.62,1.62h.134a10.52,10.52,0,0,0-1.888,1.553,1.739,1.739,0,0,0-.252.26l-.264.28.055.059a1.694,1.694,0,0,0-.142.666,1.651,1.651,0,0,0,1.647,1.647,1.679,1.679,0,0,0,.619-.122l.087.087.252-.28a1.576,1.576,0,0,0,.422-.437,7.094,7.094,0,1,1-.343,9.616l-.118-.138-.071-.024-7.378-10.822-.028.02a10.357,10.357,0,0,0-7.839-4l6.144-6.144a1.62,1.62,0,1,0-2.29-2.294l-11.283,11.283c-.122.114-.236.229-.351.351l-.166.166a1.7,1.7,0,0,0-.134.162,10.338,10.338,0,0,0,14.744,14.448,1.636,1.636,0,0,0,.6-.56h0a1.616,1.616,0,0,0,.256-.875,1.639,1.639,0,0,0-2.219-1.541l-.1-.106-.434.437a.789.789,0,0,0-.083.079,7.1,7.1,0,0,1-10.192-9.9l.394-.394a7.094,7.094,0,0,1,11.074,1.844l.177.323h.11l6.534,9.612.059-.028a10.341,10.341,0,1,0,7.989-16.9Z" transform="translate(-180.15 -66.284)" fill="#f9c30c"/>
    <text id="CRYPTO_FANTASY_LEAGUE" data-name="CRYPTO FANTASY LEAGUE" transform="translate(140.6 220.127)" fill="#fff" font-size="5" font-family="SegoeUI, Segoe UI"><tspan x="0" y="0">CRYPTO </tspan><tspan y="0" letter-spacing="-0.02em">F</tspan><tspan y="0">AN</tspan><tspan y="0" letter-spacing="-0.04em">T</tspan><tspan y="0">ASY LEAGUE</tspan></text>
  </g>
</svg>
