<svg xmlns="http://www.w3.org/2000/svg" width="10" height="10" viewBox="0 0 39.598 38.987">
  <g id="cfl365_logo-light" data-name="cfl365 logo-light" transform="translate(0 0)">
    <ellipse id="Ellipse_18" data-name="Ellipse 18" cx="2.905" cy="2.875" rx="2.905" ry="2.875" transform="translate(0 16.69)" fill="#f9c30c"/>
    <path id="Path_169" data-name="Path 169" d="M66.345,133.779A19.727,19.727,0,0,0,49,143.862a2.839,2.839,0,0,0-.246.458c-.015.025-.029.052-.042.079h0a2.7,2.7,0,0,0-.183.968,2.765,2.765,0,0,0,1.95,2.649,2.807,2.807,0,0,0,3.134-1.059h0l.051-.1a2.789,2.789,0,0,0,.214-.4,14.21,14.21,0,0,1,24.9.317H78.76a2.962,2.962,0,0,1-.58,3.151,3.022,3.022,0,0,1-4.523-.662c-.064-.119-.132-.235-.2-.35a.127.127,0,0,0-.012-.02h0a8.48,8.48,0,0,0-9.581-3.652,8.33,8.33,0,0,0,.378,16.126,8.473,8.473,0,0,0,9.4-4.088,3.044,3.044,0,0,1,3.095-1.107,2.6,2.6,0,0,1,1.981,3.646l.037-.047a14.208,14.208,0,0,1-25.033-.017v.052a2.8,2.8,0,0,0-3.545-.971,2.748,2.748,0,0,0-1.432,3.353h-.01c.012.023.024.047.037.07a2.736,2.736,0,0,0,.415.735,19.793,19.793,0,0,0,23.762,8.6,19.466,19.466,0,0,0-6.6-37.824Z" transform="translate(-46.352 -133.779)" fill="#19253a"/>
  </g>
</svg>
